<svg xmlns="http://www.w3.org/2000/svg" width="24" height="25" viewBox="0 0 24 25" fill="none">
    <path fill-rule="evenodd" clip-rule="evenodd" d="M10.0303 6.96967C10.3232 7.26256 10.3232 7.73744 10.0303 8.03033L6.31066 11.75L14.5 11.75C15.4534 11.75 16.8667 12.0298 18.0632 12.8913C19.298 13.7804 20.25 15.2556 20.25 17.5C20.25 17.9142 19.9142 18.25 19.5 18.25C19.0858 18.25 18.75 17.9142 18.75 17.5C18.75 15.7444 18.0353 14.7196 17.1868 14.1087C16.3 13.4702 15.2133 13.25 14.5 13.25L6.31066 13.25L10.0303 16.9697C10.3232 17.2626 10.3232 17.7374 10.0303 18.0303C9.73744 18.3232 9.26256 18.3232 8.96967 18.0303L3.96967 13.0303C3.67678 12.7374 3.67678 12.2626 3.96967 11.9697L8.96967 6.96967C9.26256 6.67678 9.73744 6.67678 10.0303 6.96967Z" fill="white"/>
</svg>