<svg xmlns="http://www.w3.org/2000/svg" width="20" height="21" viewBox="0 0 20 21" fill="none">
    <path fill-rule="evenodd" clip-rule="evenodd" d="M10.0001 7.37498C8.27419 7.37498 6.87508 8.77409 6.87508 10.5C6.87508 12.2259 8.27419 13.625 10.0001 13.625C11.726 13.625 13.1251 12.2259 13.1251 10.5C13.1251 8.77409 11.726 7.37498 10.0001 7.37498ZM8.12508 10.5C8.12508 9.46445 8.96455 8.62498 10.0001 8.62498C11.0356 8.62498 11.8751 9.46445 11.8751 10.5C11.8751 11.5355 11.0356 12.375 10.0001 12.375C8.96455 12.375 8.12508 11.5355 8.12508 10.5Z" fill="white" fill-opacity="0.64"/>
    <path fill-rule="evenodd" clip-rule="evenodd" d="M10.0001 3.20831C6.2383 3.20831 3.70449 5.46181 2.23389 7.37237L2.20737 7.40681C1.87478 7.83876 1.56846 8.23658 1.36065 8.70698C1.13812 9.21071 1.04175 9.75972 1.04175 10.5C1.04175 11.2402 1.13812 11.7893 1.36065 12.293C1.56847 12.7634 1.87478 13.1612 2.20737 13.5932L2.23389 13.6276C3.70449 15.5381 6.23831 17.7916 10.0001 17.7916C13.7619 17.7916 16.2957 15.5381 17.7663 13.6276L17.7928 13.5932C18.1254 13.1612 18.4317 12.7634 18.6395 12.293C18.862 11.7893 18.9584 11.2402 18.9584 10.5C18.9584 9.75972 18.862 9.21071 18.6395 8.70698C18.4317 8.23657 18.1254 7.83874 17.7928 7.40679L17.7663 7.37236C16.2957 5.46181 13.7619 3.20831 10.0001 3.20831ZM3.22443 8.13481C4.58228 6.37075 6.79205 4.45831 10.0001 4.45831C13.2081 4.45831 15.4179 6.37075 16.7757 8.13481C17.1412 8.60964 17.3553 8.89336 17.4961 9.2121C17.6277 9.50999 17.7084 9.87409 17.7084 10.5C17.7084 11.1259 17.6277 11.49 17.4961 11.7879C17.3553 12.1066 17.1412 12.3903 16.7757 12.8651C15.4179 14.6292 13.2081 16.5416 10.0001 16.5416C6.79205 16.5416 4.58228 14.6292 3.22443 12.8651C2.85894 12.3903 2.64486 12.1066 2.50405 11.7879C2.37245 11.49 2.29175 11.1259 2.29175 10.5C2.29175 9.87409 2.37245 9.50999 2.50405 9.2121C2.64486 8.89336 2.85894 8.60964 3.22443 8.13481Z" fill="white" fill-opacity="0.64"/>
</svg>