<svg xmlns="http://www.w3.org/2000/svg" width="24" height="24" viewBox="0 0 24 24" fill="none">
    <path fill-rule="evenodd" clip-rule="evenodd" d="M18.783 5.65637C17.0649 4.30532 14.82 3.25 12 3.25C7.48587 3.25 4.44529 5.9542 2.68057 8.24686L2.64874 8.2882C2.24964 8.80653 1.88206 9.28392 1.63269 9.8484C1.36564 10.4529 1.25 11.1117 1.25 12C1.25 12.8883 1.36564 13.5471 1.63269 14.1516C1.88206 14.7161 2.24964 15.1935 2.64875 15.7118L2.68057 15.7531C3.4474 16.7494 4.45514 17.8233 5.72001 18.7193L5.94121 18.4981L6.79801 17.6413C5.5922 16.8314 4.6217 15.8158 3.86922 14.8382C3.43064 14.2684 3.17374 13.9279 3.00476 13.5455C2.84684 13.188 2.75 12.7511 2.75 12C2.75 11.2489 2.84684 10.812 3.00476 10.4545C3.17374 10.0721 3.43063 9.73159 3.86922 9.1618C5.49864 7.04492 8.15036 4.75 12 4.75C14.3309 4.75 16.2227 5.59136 17.7142 6.72513L18.783 5.65637ZM14.8623 9.57708C14.1744 8.76529 13.1474 8.25 12 8.25C9.92893 8.25 8.25 9.92893 8.25 12C8.25 13.1474 8.76529 14.1744 9.57708 14.8623L10.6438 13.7955C10.1008 13.3847 9.75 12.7333 9.75 12C9.75 10.7574 10.7574 9.75 12 9.75C12.7333 9.75 13.3847 10.1008 13.7955 10.6438L14.8623 9.57708ZM14.2252 12.3355L15.6032 10.9575C15.6988 11.2885 15.75 11.6382 15.75 12C15.75 14.0711 14.0711 15.75 12 15.75C11.6382 15.75 11.2884 15.6988 10.9575 15.6032L12.3355 14.2252C13.3096 14.0795 14.0795 13.3096 14.2252 12.3355ZM8.15375 18.4069C9.27245 18.9251 10.5514 19.25 12 19.25C15.8496 19.25 18.5014 16.9551 20.1308 14.8382C20.5694 14.2684 20.8263 13.9279 20.9952 13.5455C21.1532 13.188 21.25 12.7511 21.25 12C21.25 11.2489 21.1532 10.812 20.9952 10.4545C20.8263 10.0721 20.5694 9.73159 20.1308 9.1618C19.758 8.67755 19.3318 8.18398 18.85 7.7107L19.9101 6.65053C20.4479 7.1794 20.9168 7.72384 21.3194 8.24686L21.3512 8.28818C21.7504 8.80652 22.1179 9.28391 22.3673 9.8484C22.6344 10.4529 22.75 11.1117 22.75 12C22.75 12.8883 22.6344 13.5471 22.3673 14.1516C22.1179 14.7161 21.7504 15.1935 21.3512 15.7118L21.3194 15.7531C19.5547 18.0458 16.5141 20.75 12 20.75C10.0842 20.75 8.4338 20.2629 7.03371 19.527L8.15375 18.4069Z" fill="white" fill-opacity="0.64"/>
    <path d="M22.7803 1.21967C23.0732 1.51256 23.0732 1.98744 22.7803 2.28033L2.78033 22.2803C2.48744 22.5732 2.01256 22.5732 1.71967 22.2803C1.42678 21.9874 1.42678 21.5126 1.71967 21.2197L5.44121 17.4981L16.2705 6.66886L21.7197 1.21967C22.0126 0.926777 22.4874 0.926777 22.7803 1.21967Z" fill="white" fill-opacity="0.64"/>
</svg>