<svg xmlns="http://www.w3.org/2000/svg" width="120" height="120" viewBox="0 0 120 120" fill="none">
    <path d="M88.9703 66.1639C88.9703 73.052 88.9703 83.3841 88.9703 97.1602C88.9703 99.0648 87.4264 100.609 85.5218 100.609H23.4485C21.544 100.609 20 99.0648 20 97.1602V41.5529C20 39.6483 21.544 38.1044 23.4485 38.1044H45.0017C46.9063 38.1044 48.4503 39.6483 48.4503 41.5529C48.4503 43.6955 50.1872 45.4325 52.3298 45.4325H85.5218C87.4264 45.4325 88.9703 46.9764 88.9703 48.881C88.9703 50.0691 88.9703 51.0879 88.9703 51.9375" stroke="#2E2E34" stroke-width="2" stroke-linecap="round"/>
    <path fill-rule="evenodd" clip-rule="evenodd" d="M23.3301 44.7124C23.3301 42.9917 24.725 41.5968 26.4456 41.5968H42.4693C44.19 41.5968 45.5849 42.9917 45.5849 44.7124C45.5849 46.8619 47.3275 48.6045 49.477 48.6045H82.5256C84.2463 48.6045 85.6412 49.9994 85.6412 51.72V94.4757C85.6412 96.1964 84.2463 97.5912 82.5256 97.5912H26.4456C24.725 97.5912 23.3301 96.1964 23.3301 94.4757V44.7124Z" fill="#0F0F0F"/>
    <path fill-rule="evenodd" clip-rule="evenodd" d="M34.7184 55.3469H96.5507C98.4553 55.3469 99.9992 56.8909 99.9992 58.7954C99.9992 59.0954 99.9601 59.3941 99.8828 59.684L89.6522 98.0487C89.2496 99.5583 87.8825 100.609 86.3201 100.609H23.3657C21.9373 100.609 20.7793 99.4507 20.7793 98.0223C20.7793 97.7973 20.8087 97.5733 20.8666 97.3559L22.6299 90.7435L31.3864 57.9069C31.7889 56.3973 33.1561 55.3469 34.7184 55.3469Z" fill="#0F0F0F" stroke="#2E2E34" stroke-width="2" stroke-linecap="round"/>
    <path fill-rule="evenodd" clip-rule="evenodd" d="M87.4263 93.1602L87.0416 94.6002C86.639 96.1098 85.2718 97.1601 83.7095 97.1601H27.5563C26.604 97.1601 25.832 96.3882 25.832 95.4359C25.832 95.2859 25.8516 95.1365 25.8902 94.9916L34.8599 61.3554C35.2625 59.8458 36.6296 58.7954 38.192 58.7954L51.9258 58.7953C52.6643 77.8176 68.2541 93.0288 87.4263 93.1602Z" fill="#171717"/>
    <path d="M54.4848 23.8403C55.9132 23.8403 57.0712 22.6823 57.0712 21.2539C57.0712 19.8254 55.9132 18.6675 54.4848 18.6675C53.0564 18.6675 51.8984 19.8254 51.8984 21.2539C51.8984 22.6823 53.0564 23.8403 54.4848 23.8403Z" stroke="#2E2E34" stroke-width="2"/>
    <path d="M83.2978 35.0479C83.2978 36.2002 82.3637 37.1343 81.2114 37.1343C80.0591 37.1343 79.125 36.2002 79.125 35.0479C79.125 33.8957 80.0591 32.9615 81.2114 32.9615C82.3637 32.9615 83.2978 33.8957 83.2978 35.0479Z" stroke="#2E2E34"/>
    <path d="M61.1719 30.5281L68.3777 37.7339M68.4873 30.5281L61.2814 37.7339L68.4873 30.5281Z" stroke="#2E2E34" stroke-width="2.5" stroke-linecap="round" stroke-linejoin="round"/>
</svg>